<svg width="24" height="24" viewBox="0 0 24 24" fill="none" xmlns="http://www.w3.org/2000/svg">
<circle cx="9.33337" cy="6" r="4" fill="#686677"/>
<path fill-rule="evenodd" clip-rule="evenodd" d="M13.8334 22C12.1835 22 11.3585 22 10.8459 21.4874C10.3334 20.9749 10.3334 20.1499 10.3334 18.5C10.3334 16.8501 10.3334 16.0251 10.8459 15.5126C11.3585 15 12.1835 15 13.8334 15C15.4833 15 16.3082 15 16.8208 15.5126C17.3334 16.0251 17.3334 16.8501 17.3334 18.5C17.3334 20.1499 17.3334 20.9749 16.8208 21.4874C16.3082 22 15.4833 22 13.8334 22ZM15.8014 17.7458C16.0292 17.518 16.0292 17.1487 15.8014 16.9209C15.5736 16.693 15.2043 16.693 14.9765 16.9209L13.0556 18.8417L12.6903 18.4764C12.4625 18.2486 12.0931 18.2486 11.8653 18.4764C11.6375 18.7042 11.6375 19.0736 11.8653 19.3014L12.6431 20.0791C12.8709 20.307 13.2403 20.307 13.4681 20.0791L15.8014 17.7458Z" fill="#686677"/>
<path opacity="0.5" d="M15.4281 15.0312C15.0033 15 14.4821 15 13.8334 15C12.1835 15 11.3585 15 10.8459 15.5126C10.3334 16.0251 10.3334 16.8501 10.3334 18.5C10.3334 19.6663 10.3334 20.4204 10.5144 20.9433C10.1305 20.9806 9.7359 21 9.33337 21C5.46738 21 2.33337 19.2091 2.33337 17C2.33337 14.7909 5.46738 13 9.33337 13C11.9468 13 14.2257 13.8184 15.4281 15.0312Z" fill="#686677"/>
</svg>
